# AST/ASF file generated using VICON BodyLanguage
# -----------------------------------------------
:version 1.10
:name VICON
:units
  mass 1.0
  length 0.45
  angle deg
:documentation
   .ast/.asf automatically generated from VICON data using
   VICON BodyBuilder and BodyLanguage model FoxedUp or BRILLIANT.MOD
:root
   order TX TY TZ RX RY RZ
   axis XYZ
   position 0 0 0  
   orientation 0 0 0 
:bonedata
  begin
     id 1 
     name lhipjoint
     direction 0.711131 -0.61297 0.344326 
     length 2.29162 
     axis 0 0 0  XYZ
  end
  begin
     id 2 
     name lfemur
     direction 0.34202 -0.939693 0  
     length 6.71424  
     axis 0 0 20  XYZ
    dof rx ry rz
    limits (-160.0 20.0)
           (-70.0 70.0)
           (-60.0 70.0)
  end
  begin
     id 3 
     name ltibia
     direction 0.34202 -0.939693 0   
     length 6.7087   
     axis 0 0 20   XYZ
    dof rx
    limits (-10.0 170.0)
  end
  begin
     id 4 
     name lfoot
     direction 0.0230374 -0.0632947 0.997729   
     length 1.56743   
     axis -90 7.62852e-016 20   XYZ
    dof rx rz
    limits (-45.0 90.0)
           (-70.0 20.0)
  end
  begin
     id 5 
     name ltoes
     direction 1.53585e-011 -4.21885e-011 1   
     length 0.802914   
     axis -90 7.62852e-016 20   XYZ
    dof rx
    limits (-90.0 20.0)
  end
  begin
     id 6 
     name rhipjoint
     direction -0.733192 -0.592884 0.333043   
     length 2.36925  
     axis 0 0 0  XYZ 
  end
  begin
     id 7 
     name rfemur
     direction -0.34202 -0.939693 0   
     length 6.67027   
     axis 0 0 -20   XYZ
    dof rx ry rz
    limits (-160.0 20.0)
           (-70.0 70.0)
           (-70.0 60.0)
  end
  begin
     id 8 
     name rtibia
     direction -0.34202 -0.939693 0   
     length 6.6862   
     axis 0 0 -20   XYZ
    dof rx
    limits (-10.0 170.0)
 end
 begin
     id 9 
     name rfoot
     direction -0.0949739 -0.260939 0.960672   
     length 1.67698  
     axis -90 -7.62852e-016 -20   XYZ
    dof rx rz
    limits (-45.0 90.0)
           (-20.0 70.0)
  end
  begin
     id 10 
     name rtoes
     direction -1.5353e-011 -4.21868e-011 1   
     length 0.846298   
     axis -90 -7.62852e-016 -20   XYZ
    dof rx
    limits (-90.0 20.0)
  end
  begin
     id 11 
     name lowerback
     direction -0.0206828 0.999785 -0.00109866   
     length 2.04382   
     axis 0 0 0   XYZ
    dof rx ry rz
    limits (-20.0 45.0)
           (-30.0 30.0)
           (-30.0 30.0)
  end
  begin
     id 12 
     name upperback
     direction -0.0105003 0.999727 -0.0208904   
     length 2.04538   
     axis 0 0 0   XYZ
    dof rx ry rz
    limits (-20.0 45.0)
           (-30.0 30.0)
           (-30.0 30.0)
  end
  begin
     id 13 
     name thorax
     direction -0.000416255 0.999808 -0.0196023   
     length 2.0399   
     axis 0 0 0   XYZ
    dof rx ry rz
    limits (-20.0 45.0)
           (-30.0 30.0)
           (-30.0 30.0)
  end
  begin
     id 14 
     name lowerneck
     direction 0.0627861 0.989205 0.13241   
     length 1.46207   
     axis 0 0 0   XYZ
    dof rx ry rz
    limits (-20.0 45.0)
           (-30.0 30.0)
           (-30.0 30.0)
  end
  begin
     id 15 
     name upperneck
     direction 0.00627179 0.994526 0.104303   
     length 1.41419   
     axis 0 0 0   XYZ
    dof rx ry rz
    limits (-20.0 45.0)
           (-30.0 30.0)
           (-30.0 30.0)
  end
  begin
     id 16
     name head
     direction -0.00443838 0.999688 0.0245968  
     length 1.50718  
     axis 0 0 0   XYZ
    dof rx ry rz
    limits (-20.0 45.0)
           (-30.0 30.0)
           (-30.0 30.0)
  end
  begin
     id 17 
     name lclavicle
     direction 0.758742 0.650995 -0.0227258  
     length 2.86888  
     axis 0 0 0   XYZ
    dof ry rz
    limits (-20.0 10.0)
           (0.0 20.0)
  end
  begin
     id 18 
     name lhumerus
     direction 1 -4.48962e-011 1.06664e-027   
     length 4.65776   
     axis -180 -30 -90   XYZ
    dof rx ry rz
    limits (-60.0 90.0)
           (-90.0 90.0)
           (-90.0 90.0)
  end
  begin
     id 19
     name lradius
     direction 1 -4.48968e-011 1.40404e-026   
     length 3.55539   
     axis -180 -30 -90   XYZ
    dof rx
    limits (-10.0 170.0)
  end
  begin
     id 20
     name lwrist
     direction 1 -4.48976e-011 3.32647e-026   
     length 1.77769   
     axis -2.20186e-014 90 90   XYZ
    dof ry
    limits (-180.0 0.0)
 end
  begin
     id 21 
     name lhand
     direction 1 -4.48982e-011 6.65293e-026   
     length 0.707264   
     axis -4.24514e-014 90 90   XYZ
    dof rx rz
    limits (-90.0 90.0)
           (-45.0 45.0)
  end
  begin
     id 22 
     name lfingers
     direction 1 -4.48966e-011 1.33059e-025   
     length 0.570215   
     axis -8.49028e-014 90 90   XYZ
    dof rx
    limits (0.0 90.0)
  end
  begin
     id 23
     name lthumb
     direction 0.707107 -6.3493e-011 0.707107   
     length 0.818718   
     axis -90 45 2.85299e-015   XYZ
    dof rx rz
    limits (-45.0 45.0)
           (-45.0 45.0)
  end
  begin
     id 24 
     name rclavicle
     direction -0.870343 0.482028 -0.100759   
     length 3.2251  
     axis 0 0 0   XYZ 
    dof ry rz
    limits (-10.0 20.0)
           (-20.0 0.0)
  end
  begin
     id 25 
     name rhumerus
     direction -1 -4.48974e-011 -9.45849e-028  
     length 4.71925   
     axis -180 30 90   XYZ
    dof rx ry rz
    limits (-90.0 60.0)
           (-90.0 90.0)
           (-90.0 90.0)
  end
  begin
     id 26 
     name rradius
     direction -1 -4.48965e-011 1.17607e-026   
     length 3.5699   
     axis -180 30 90   XYZ
    dof rx
    limits (-10.0 170.0)
  end
  begin
     id 27 
     name rwrist
     direction -1 -4.48968e-011 3.32647e-026   
     length 1.78495   
     axis -2.20186e-014 -90 -90   XYZ
    dof ry
    limits (-180.0 0.0)
  end
  begin
     id 28
     name rhand
     direction -1 -4.48995e-011 6.65293e-026   
     length 0.507757   
     axis -4.24514e-014 -90 -90   XYZ
    dof rx rz
    limits (-90.0 90.0)
           (-45.0 45.0)
  end
  begin
     id 29
     name rfingers
     direction -1 -4.48864e-011 1.33059e-025   
     length 0.409367   
     axis -8.49028e-014 -90 -90   XYZ
    dof rx
    limits (0.0 90.0)
  end
  begin
     id 30
     name rthumb
     direction -0.707107 -6.3494e-011 0.707107   
     length 0.587771   
     axis -90 -45 -2.85299e-015   XYZ
    dof rx rz
    limits (-45.0 45.0)
           (-45.0 45.0)
  end
:hierarchy
  begin
    root lhipjoint rhipjoint lowerback
    lhipjoint lfemur
    lfemur ltibia
    ltibia lfoot
    lfoot ltoes
    rhipjoint rfemur
    rfemur rtibia
    rtibia rfoot
    rfoot rtoes
    lowerback upperback
    upperback thorax
    thorax lowerneck lclavicle rclavicle
    lowerneck upperneck
    upperneck head
    lclavicle lhumerus
    lhumerus lradius
    lradius lwrist
    lwrist lhand lthumb
    lhand lfingers
    rclavicle rhumerus
    rhumerus rradius
    rradius rwrist
    rwrist rhand rthumb
    rhand rfingers
  end

#!OML:ASF E:\Steps\Project 1\Capture day 1\Session 2\Subject.ASF
:FULLY-SPECIFIED
:DEGREES
33
root 8.46374 16.2941 31.4937 -152.462 -1.2076 177.96
lowerback -30.0453 -1.25213 -6.80182
upperback -2.12165 -0.0958712 -0.844571
thorax 13.3659 -0.766853 2.65068
lowerneck -7.81353 -3.15724 -1.73257
upperneck 10.2058 -4.8578 5.37098
head 4.51298 -2.2293 1.62354
rclavicle 7.95139e-016 5.1684e-015
rhumerus -38.8742 -20.4089 -76.2618
rradius 31.3763
rwrist 3.9331
rhand -8.56867 -55.2113
rfingers 7.12502
rthumb 17.3616 -84.4559
lclavicle 7.95139e-016 5.1684e-015
lhumerus -32.3631 11.9608 77.131
lradius 21.4803
lwrist -8.53079
lhand -21.0985 -9.83408
lfingers 7.12502
lthumb 5.27922 20.0802
rfemur -24.2116 5.68563 19.2206
rtibia 6.23868
rfoot -19.0529 -9.51353
rtoes -35.3224
lfemur -25.665 -10.7361 -17.3217
ltibia 9.66206
lfoot -9.87429 4.28209
ltoes -43.9462
34
root 8.46584 16.299 31.4928 -152.682 -1.2286 177.972
lowerback -29.8572 -1.24423 -6.7951
upperback -2.05732 -0.0797804 -0.840473
thorax 13.3558 -0.751685 2.66217
lowerneck -7.58547 -3.05609 -2.10984
upperneck 9.798 -4.73509 6.02969
head 4.37017 -2.15883 1.90048
rclavicle -7.15625e-015 2.46493e-014
rhumerus -38.7978 -20.2998 -76.346
rradius 31.504
rwrist 3.79933
rhand -8.79739 -55.5087
rfingers 7.12502
rthumb 17.1415 -84.7726
lclavicle -7.15625e-015 2.46493e-014
lhumerus -32.2707 11.7058 77.2976
lradius 21.7807
lwrist -8.13771
lhand -21.1836 -9.69677
lfingers 7.12502
lthumb 5.19706 20.2195
rfemur -23.88 5.8612 19.2352
rtibia 6.09935
rfoot -18.9857 -9.61672
rtoes -35.2061
lfemur -25.3852 -10.8707 -17.2942
ltibia 9.60572
lfoot -9.97608 4.39075
ltoes -43.5732
35
root 8.46608 16.2944 31.4953 -152.69 -1.27021 177.934
lowerback -29.8135 -1.2669 -6.83935
upperback -2.06463 -0.102064 -0.79968
thorax 13.3296 -0.763317 2.72241
lowerneck -7.63679 -3.0745 -2.19168
upperneck 9.95024 -4.75651 5.99649
head 4.4271 -2.1713 1.90072
rclavicle 1.3418e-015 -2.74323e-014
rhumerus -38.7607 -20.0753 -76.3993
rradius 31.709
rwrist 3.46219
rhand -8.80515 -55.3787
rfingers 7.12502
rthumb 17.134 -84.6433
lclavicle 1.3418e-015 -2.74323e-014
lhumerus -32.208 11.4936 77.5571
lradius 22.1052
lwrist -7.849
lhand -21.2812 -9.40165
lfingers 7.12502
lthumb 5.10287 20.5169
rfemur -23.88 5.93074 19.1606
rtibia 6.10972
rfoot -18.9378 -9.73685
rtoes -34.9703
lfemur -25.3881 -11.0649 -17.2799
ltibia 9.58694
lfoot -9.96211 4.56949
ltoes -43.9308
36
root 8.46765 16.2947 31.498 -152.731 -1.25497 177.864
lowerback -29.7305 -1.28839 -6.89975
upperback -2.07115 -0.115111 -0.803909
thorax 13.2854 -0.770391 2.74662
lowerneck -7.96063 -3.15957 -1.8338
upperneck 10.5682 -4.87089 5.33241
head 4.65047 -2.23677 1.62269
rclavicle -3.18055e-015 -5.56597e-015
rhumerus -38.7299 -19.9817 -76.4785
rradius 31.8366
rwrist 3.29794
rhand -8.27711 -54.9431
rfingers 7.12502
rthumb 17.6422 -84.1627
lclavicle -3.18055e-015 -5.56597e-015
lhumerus -32.1596 11.3849 77.7121
lradius 22.3651
lwrist -7.81344
lhand -21.5315 -9.32022
lfingers 7.12502
lthumb 4.86119 20.604
rfemur -23.868 5.82635 19.1218
rtibia 6.14423
rfoot -18.8914 -9.7155
rtoes -34.86
lfemur -25.3327 -10.9725 -17.4125
ltibia 9.56309
lfoot -9.84594 4.5025
ltoes -44.0349
37
root 8.46867 16.2961 31.4998 -152.732 -1.23183 177.834
lowerback -29.7499 -1.27873 -6.87757
upperback -2.05299 -0.0998973 -0.85584
thorax 13.3134 -0.762207 2.68396
lowerneck -7.92689 -3.17215 -1.70022
upperneck 10.5845 -4.89311 5.22177
head 4.64477 -2.24957 1.56589
rclavicle -1.49089e-015 1.47101e-014
rhumerus -38.6516 -20.0916 -76.5618
rradius 31.8498
rwrist 3.35328
rhand -8.08858 -54.4904
rfingers 7.12502
rthumb 17.8236 -83.6936
lclavicle -1.49089e-015 1.47101e-014
lhumerus -32.0417 11.2739 77.7515
lradius 22.543
lwrist -7.78687
lhand -21.7977 -9.34165
lfingers 7.12502
lthumb 4.60412 20.5883
rfemur -23.8849 5.7821 19.0988
rtibia 6.14784
rfoot -18.8254 -9.7123
rtoes -34.8504
lfemur -25.3426 -10.9735 -17.4565
ltibia 9.59183
lfoot -9.76818 4.55875
ltoes -44.3483
38
root 8.46925 16.295 31.4988 -152.706 -1.21168 177.87
lowerback -29.8385 -1.26062 -6.82396
upperback -2.05099 -0.0900307 -0.853832
thorax 13.3551 -0.757354 2.65956
lowerneck -7.63401 -3.09824 -1.9305
upperneck 10.2305 -4.79077 5.58482
head 4.49761 -2.19799 1.7282
rclavicle -4.91992e-015 -4.77083e-015
rhumerus -38.6135 -20.1128 -76.6053
rradius 31.9136
rwrist 3.3647
rhand -8.24357 -54.3942
rfingers 7.12502
rthumb 17.6745 -83.6109
lclavicle -4.91992e-015 -4.77083e-015
lhumerus -31.9677 11.0983 77.8413
lradius 22.7304
lwrist -7.55502
lhand -21.8093 -9.46914
lfingers 7.12502
lthumb 4.59288 20.4611
rfemur -23.9065 5.78905 19.136
rtibia 6.13581
rfoot -18.8903 -9.6873
rtoes -35.0388
lfemur -25.3528 -11.062 -17.3855
ltibia 9.58306
lfoot -9.76956 4.66326
ltoes -44.421
39
root 8.46866 16.2936 31.497 -152.688 -1.20596 177.899
lowerback -29.9098 -1.24264 -6.77174
upperback -2.06028 -0.0847877 -0.834614
thorax 13.3766 -0.754397 2.65305
lowerneck -7.43262 -3.09148 -1.9264
upperneck 10.1093 -4.76705 5.5198
head 4.42405 -2.19434 1.71294
rclavicle -3.03147e-015 -1.19271e-014
rhumerus -38.623 -19.917 -76.6745
rradius 32.0837
rwrist 3.20312
rhand -8.3646 -54.5166
rfingers 7.12502
rthumb 17.558 -83.7438
lclavicle -3.03147e-015 -1.19271e-014
lhumerus -31.9174 10.9273 77.9671
lradius 22.9543
lwrist -7.33448
lhand -21.5419 -9.54361
lfingers 7.12502
lthumb 4.8511 20.3809
rfemur -23.9175 5.77731 19.1604
rtibia 6.13459
rfoot -18.995 -9.62897
rtoes -35.0635
lfemur -25.3519 -11.0948 -17.3346
ltibia 9.54158
lfoot -9.84405 4.60049
ltoes -43.2525
40
root 8.47035 16.2953 31.4986 -152.738 -1.25687 177.885
lowerback -29.8474 -1.26254 -6.80576
upperback -2.04568 -0.10118 -0.805343
thorax 13.3671 -0.761615 2.69818
lowerneck -7.38835 -3.16177 -1.69965
upperneck 10.1595 -4.84216 5.13623
head 4.42007 -2.242 1.5543
rclavicle 1.19271e-015 -1.98785e-015
rhumerus -38.5884 -19.7338 -76.7453
rradius 32.2925
rwrist 3.0708
rhand -8.24862 -54.6501
rfingers 7.12502
rthumb 17.6696 -83.8673
lclavicle 1.19271e-015 -1.98785e-015
lhumerus -31.8264 10.7607 78.1423
lradius 23.2032
lwrist -7.20256
lhand -21.3709 -9.45206
lfingers 7.12502
lthumb 5.0162 20.4686
rfemur -23.8344 5.79672 19.1629
rtibia 6.08968
rfoot -18.9276 -9.68534
rtoes -35.0593
lfemur -25.3202 -11.0145 -17.3555
ltibia 9.54998
lfoot -9.88074 4.416
ltoes -42.3732
41
root 8.4717 16.2962 31.5003 -152.768 -1.24395 177.868
lowerback -29.7519 -1.27578 -6.90456
upperback -2.07026 -0.101218 -0.747932
thorax 13.2951 -0.765292 2.81507
lowerneck -7.55818 -3.13474 -1.7895
upperneck 10.3669 -4.81488 5.1854
head 4.51428 -2.22496 1.58165
rclavicle 1.15792e-014 -4.25399e-014
rhumerus -38.5777 -19.655 -76.7149
rradius 32.4668
rwrist 3.09166
rhand -8.08586 -54.7453
rfingers 7.12502
rthumb 17.8262 -83.9483
lclavicle 1.15792e-014 -4.25399e-014
lhumerus -31.8124 10.5315 78.4132
lradius 23.4896
lwrist -6.97392
lhand -21.4537 -9.48602
lfingers 7.12502
lthumb 4.93629 20.4365
rfemur -23.7873 5.84451 19.1442
rtibia 6.0496
rfoot -18.8272 -9.72984
rtoes -35.3322
lfemur -25.2943 -10.9557 -17.3914
ltibia 9.55682
lfoot -9.90398 4.3864
ltoes -43.0985
42
root 8.47422 16.297 31.502 -152.81 -1.17574 177.871
lowerback -29.7695 -1.21032 -6.76108
upperback -2.00771 -0.0332213 -0.893302
thorax 13.3702 -0.724441 2.60669
lowerneck -7.86469 -3.04876 -1.69153
upperneck 10.6347 -4.75547 5.35659
head 4.64789 -2.17757 1.61567
rclavicle 5.31749e-015 2.66371e-014
rhumerus -38.4455 -19.8298 -76.9905
rradius 32.5721
rwrist 3.14455
rhand -8.12678 -54.9883
rfingers 7.12502
rthumb 17.7868 -84.1949
lclavicle 5.31749e-015 2.66371e-014
lhumerus -31.6517 10.2127 78.3828
lradius 23.7311
lwrist -6.71232
lhand -21.5517 -9.86856
lfingers 7.12502
lthumb 4.84161 20.0561
rfemur -23.7438 6.00048 19.1282
rtibia 6.05145
rfoot -18.9098 -9.75379
rtoes -34.733
lfemur -25.2279 -10.8309 -17.4311
ltibia 9.53768
lfoot -9.9243 4.32506
ltoes -43.6129
43
root 8.47437 16.297 31.5005 -152.862 -1.15936 177.918
lowerback -29.8301 -1.18491 -6.6585
upperback -1.93152 -0.00997334 -0.930894
thorax 13.4848 -0.70785 2.51964
lowerneck -7.96415 -3.01796 -1.5385
upperneck 10.736 -4.72779 5.25902
head 4.68897 -2.16103 1.56053
rclavicle 1.11816e-014 -3.06128e-014
rhumerus -38.3099 -19.7947 -77.2041
rradius 32.7317
rwrist 2.95259
rhand -8.20384 -55.66
rfingers 7.12502
rthumb 17.7127 -84.8733
lclavicle 1.11816e-014 -3.06128e-014
lhumerus -31.506 10.0425 78.4246
lradius 23.9469
lwrist -6.60567
lhand -21.5314 -10.0716
lfingers 7.12502
lthumb 4.86123 19.8527
rfemur -23.6942 6.01882 19.1619
rtibia 6.06034
rfoot -19.0066 -9.72394
rtoes -33.8942
lfemur -25.182 -10.8597 -17.3781
ltibia 9.57285
lfoot -9.90397 4.40857
ltoes -43.6484
44
root 8.47717 16.297 31.5023 -152.848 -1.17158 177.933
lowerback -29.8549 -1.21132 -6.66724
upperback -1.92644 -0.0426387 -0.902281
thorax 13.5047 -0.724116 2.5424
lowerneck -7.8916 -2.96459 -1.58026
upperneck 10.6781 -4.65292 5.30432
head 4.6583 -2.12543 1.5877
rclavicle -1.26228e-014 5.20816e-014
rhumerus -38.2579 -19.5346 -77.3801
rradius 32.9699
rwrist 2.61911
rhand -8.29848 -56.2088
rfingers 7.12502
rthumb 17.6216 -85.4303
lclavicle -1.26228e-014 5.20816e-014
lhumerus -31.4692 9.91676 78.5476
lradius 24.2247
lwrist -6.50298
lhand -21.526 -9.80102
lfingers 7.12502
lthumb 4.86644 20.1231
rfemur -23.7202 5.97 19.2239
rtibia 6.07276
rfoot -19.008 -9.6797
rtoes -33.9391
lfemur -25.2679 -10.654 -17.3991
ltibia 9.73076
lfoot -9.91095 4.25382
ltoes -44.3147
45
root 8.47606 16.298 31.5029 -152.856 -1.15805 177.94
lowerback -29.8357 -1.20969 -6.63539
upperback -1.94257 -0.0576396 -0.880232
thorax 13.4796 -0.72893 2.54361
lowerneck -7.83581 -2.93608 -1.673
upperneck 10.6819 -4.61252 5.36514
head 4.65202 -2.10731 1.62498
rclavicle -6.26172e-015 -7.15625e-015
rhumerus -38.2986 -19.2575 -77.4997
rradius 33.2266
rwrist 2.33312
rhand -8.44651 -56.4059
rfingers 7.12502
rthumb 17.4792 -85.6401
lclavicle -6.26172e-015 -7.15625e-015
lhumerus -31.4977 9.88125 78.6648
lradius 24.4999
lwrist -6.43136
lhand -21.5314 -9.60086
lfingers 7.12502
lthumb 4.86122 20.3234
rfemur -23.737 6.02992 19.1901
rtibia 6.09499
rfoot -19.0842 -9.70793
rtoes -33.8772
lfemur -25.3003 -10.7164 -17.3873
ltibia 9.77553
lfoot -9.93317 4.37513
ltoes -44.8032
46
root 8.47987 16.2996 31.5079 -152.842 -1.20452 178.012
lowerback -29.803 -1.21751 -6.60903
upperback -1.95515 -0.0853994 -0.828288
thorax 13.4538 -0.739407 2.5757
lowerneck -7.78601 -2.94212 -1.73049
upperneck 10.6618 -4.6181 5.40403
head 4.63982 -2.11145 1.64675
rclavicle 1.09829e-014 -1.70955e-014
rhumerus -38.3316 -19.1557 -77.5419
rradius 33.4186
rwrist 2.26791
rhand -8.39523 -56.4885
rfingers 7.12502
rthumb 17.5285 -85.7183
lclavicle 1.09829e-014 -1.70955e-014
lhumerus -31.4917 9.85261 78.7615
lradius 24.7362
lwrist -6.34897
lhand -21.3312 -9.9006
lfingers 7.12502
lthumb 5.05458 20.0191
rfemur -23.7804 6.24475 19.262
rtibia 6.11255
rfoot -19.1459 -9.90172
rtoes -33.7368
lfemur -25.3869 -10.5924 -17.2892
ltibia 9.82608
lfoot -9.92191 4.26504
ltoes -44.599
